<svg width="24" height="23" viewBox="0 0 24 23" fill="none" xmlns="http://www.w3.org/2000/svg">
<path fill-rule="evenodd" clip-rule="evenodd" d="M10.1323 0.319569C8.19975 1.00132 6.77624 3.45299 3.92923 8.35635C1.10047 13.2282 -0.313918 15.6642 0.0587027 17.6538C0.291637 18.8974 0.950466 20.0238 1.92431 20.8431C3.48215 22.1538 6.32143 22.1538 12 22.1538C17.6785 22.1538 20.5178 22.1538 22.0757 20.8431C23.0496 20.0238 23.7083 18.8974 23.9413 17.6538C24.3139 15.6642 22.8996 13.2282 20.0707 8.35635C17.2237 3.45299 15.8003 1.00132 13.8677 0.319569C12.6598 -0.106523 11.3402 -0.106523 10.1323 0.319569ZM15.9761 15.4435L15.9761 15.4434L15.9763 15.4431C17.4096 13.1807 18.1263 12.0496 17.9817 11.1207C17.8798 10.4662 17.5205 9.87133 16.9748 9.45391C16.2004 8.86157 14.8003 8.86157 12 8.86157C9.19973 8.86157 7.7996 8.86157 7.02528 9.45391C6.47956 9.87133 6.12022 10.4662 6.01829 11.1207C5.8737 12.0496 6.59037 13.1808 8.02375 15.4432L8.02387 15.4434L8.02397 15.4435C9.39932 17.6143 10.0871 18.6998 10.9999 19.027C11.644 19.2577 12.356 19.2577 13.0001 19.027C13.913 18.6998 14.6007 17.6143 15.9761 15.4435Z" fill="white"/>
</svg>
