<svg width="64" height="64" viewBox="0 0 64 64" fill="none" xmlns="http://www.w3.org/2000/svg">
<path opacity="0.12" d="M16 1.2H48C56.1738 1.2 62.8 7.82619 62.8 16V48C62.8 56.1738 56.1738 62.8 48 62.8H16C7.82619 62.8 1.2 56.1738 1.2 48V16C1.2 7.82619 7.82619 1.2 16 1.2Z" fill="white" stroke="#D9E1EC" stroke-width="2.4"/>
<path d="M27.1622 20.0959C30.2309 19.0347 33.5762 20.6757 34.6341 23.761L35.1062 25.1378L37.1391 22.5858L37.5417 22.0957L37.9171 21.6523L38.2685 21.255C39.1201 20.3187 39.7784 19.8088 40.4757 19.6835C41.3273 19.5306 42.2147 19.7227 42.9624 20.222C43.5126 20.5893 43.9377 21.2335 44.3857 22.2533L44.5795 22.7136L44.7788 23.2217L44.986 23.7792L45.4347 25.0495L46.1861 27.2409L46.6113 28.5194L46.7898 29.0868L46.9443 29.6103L47.0738 30.0929C47.3459 31.1735 47.4059 31.944 47.1975 32.5735C46.9144 33.4292 46.3329 34.1293 45.5681 34.5353C44.9419 34.8677 44.1105 34.8729 42.8654 34.6616L42.3449 34.5658L41.7772 34.4485L40.831 34.2356L37.993 33.5571L38.4651 34.9338C39.523 38.0191 37.8929 41.3805 34.8241 42.4416L21.859 46.9247C18.7903 47.9858 15.445 46.3449 14.3871 43.2595L10.5561 32.0867C9.49822 29.0014 11.1283 25.64 14.1971 24.5789L27.1622 20.0959Z" stroke="#D1CEFF" stroke-width="2.4" stroke-linejoin="round"/>
<path d="M50.0891 22.9816C50.667 23.1606 51.155 23.605 51.3671 24.2237C51.5792 24.8423 51.4671 25.4942 51.1215 25.9925M49.5606 18.9551C51.9817 18.9758 54.2374 20.5104 55.0714 22.9428C55.9054 25.3751 55.0688 27.9791 53.1736 29.4922" stroke="#FA5B30" stroke-width="2.4" stroke-linecap="round" stroke-linejoin="round"/>
</svg>
