<svg width="18" height="19" viewBox="0 0 18 19" fill="none" xmlns="http://www.w3.org/2000/svg">
<path d="M9.19279 2.70325L12.0547 4.51333L12.8753 5.05002L13.3584 5.37939L13.7921 5.69036C14.7471 6.39744 15.3085 6.98491 15.5528 7.6665C15.8604 8.52538 15.8604 9.47462 15.5528 10.3335C15.3085 11.0151 14.7471 11.6026 13.7921 12.3096L13.3584 12.6206L12.8753 12.95L12.0547 13.4867L9.48492 15.1151L8.64191 15.6337L8.13276 15.9348L7.66193 16.1996C6.52996 16.8158 5.72563 17.0868 5.0111 16.9756C4.13836 16.8397 3.34525 16.3606 2.7887 15.633C2.37918 15.0976 2.18201 14.338 2.08707 13.21L2.05232 12.7036L2.02817 12.1497L2.01268 11.5455L2 10.1768V7.82315L2.01268 6.45445L2.02817 5.85034L2.05232 5.29635L2.08707 4.78998C2.18201 3.66204 2.37918 2.90237 2.7887 2.367C3.34525 1.63938 4.13836 1.16025 5.0111 1.02438C5.72563 0.913177 6.52996 1.1842 7.66193 1.80044L8.13276 2.06525L8.64191 2.36637L9.19279 2.70325Z"/>
</svg>
