<svg width="120" height="113" viewBox="0 0 120 113" fill="none" xmlns="http://www.w3.org/2000/svg">
<path fill-rule="evenodd" clip-rule="evenodd" d="M19.6462 42.4346C33.8812 17.5347 40.9988 5.08481 50.6616 1.62281C56.7009 -0.540936 63.2991 -0.540936 69.3384 1.62281C79.0013 5.08481 86.1187 17.5347 100.354 42.4346C114.498 67.1747 121.569 79.545 119.707 89.648C118.542 95.9634 115.248 101.683 110.378 105.844C102.589 112.5 88.3927 112.5 60 112.5C31.6072 112.5 17.4107 112.5 9.62156 105.844C4.75233 101.683 1.45819 95.9634 0.293513 89.648C-1.56959 79.545 5.50233 67.1747 19.6462 42.4346Z" fill="url(#paint0_radial_14_14380)"/>
<path d="M9.9491 105.46L9.65258 105.807L9.94908 105.46C5.16802 101.375 1.93309 95.7586 0.789319 89.5565C-0.114095 84.6576 1.13717 79.1552 4.42811 71.7346C7.71824 64.3158 13.0064 55.0645 20.0838 42.6848C27.2069 30.2251 32.5304 20.9147 37.2784 14.283C42.0279 7.64915 46.1481 3.77544 50.8316 2.09743C56.761 -0.0269224 63.239 -0.0269224 69.1684 2.09743C73.8519 3.77544 77.9721 7.64915 82.7216 14.283C87.4696 20.9147 92.793 30.2251 99.9161 42.6848C106.994 55.0645 112.282 64.3158 115.572 71.7346C118.863 79.1552 120.114 84.6576 119.211 89.5566C118.067 95.7587 114.832 101.375 110.051 105.46L110.347 105.807L110.051 105.46C106.275 108.687 100.906 110.338 92.8638 111.166C84.8239 111.995 74.2076 111.996 60 111.996C45.7923 111.996 35.176 111.995 27.1361 111.166C19.0943 110.338 13.7248 108.687 9.9491 105.46Z" stroke="url(#paint1_radial_14_14380)" stroke-width="1.00833"/>
<path d="M9.9491 105.46L9.65258 105.807L9.94908 105.46C5.16802 101.375 1.93309 95.7586 0.789319 89.5565C-0.114095 84.6576 1.13717 79.1552 4.42811 71.7346C7.71824 64.3158 13.0064 55.0645 20.0838 42.6848C27.2069 30.2251 32.5304 20.9147 37.2784 14.283C42.0279 7.64915 46.1481 3.77544 50.8316 2.09743C56.761 -0.0269224 63.239 -0.0269224 69.1684 2.09743C73.8519 3.77544 77.9721 7.64915 82.7216 14.283C87.4696 20.9147 92.793 30.2251 99.9161 42.6848C106.994 55.0645 112.282 64.3158 115.572 71.7346C118.863 79.1552 120.114 84.6576 119.211 89.5566C118.067 95.7587 114.832 101.375 110.051 105.46L110.347 105.807L110.051 105.46C106.275 108.687 100.906 110.338 92.8638 111.166C84.8239 111.995 74.2076 111.996 60 111.996C45.7923 111.996 35.176 111.995 27.1361 111.166C19.0943 110.338 13.7248 108.687 9.9491 105.46Z" stroke="url(#paint2_linear_14_14380)" stroke-width="1.00833"/>
<path d="M9.9491 105.46L9.65258 105.807L9.94908 105.46C5.16802 101.375 1.93309 95.7586 0.789319 89.5565C-0.114095 84.6576 1.13717 79.1552 4.42811 71.7346C7.71824 64.3158 13.0064 55.0645 20.0838 42.6848C27.2069 30.2251 32.5304 20.9147 37.2784 14.283C42.0279 7.64915 46.1481 3.77544 50.8316 2.09743C56.761 -0.0269224 63.239 -0.0269224 69.1684 2.09743C73.8519 3.77544 77.9721 7.64915 82.7216 14.283C87.4696 20.9147 92.793 30.2251 99.9161 42.6848C106.994 55.0645 112.282 64.3158 115.572 71.7346C118.863 79.1552 120.114 84.6576 119.211 89.5566C118.067 95.7587 114.832 101.375 110.051 105.46L110.347 105.807L110.051 105.46C106.275 108.687 100.906 110.338 92.8638 111.166C84.8239 111.995 74.2076 111.996 60 111.996C45.7923 111.996 35.176 111.995 27.1361 111.166C19.0943 110.338 13.7248 108.687 9.9491 105.46Z" stroke="url(#paint3_linear_14_14380)" stroke-width="1.00833"/>
<path fill-rule="evenodd" clip-rule="evenodd" d="M79.8806 78.4233C73.0036 89.4473 69.5649 94.9598 65.0006 96.6211C61.7799 97.793 58.2202 97.793 54.9994 96.6211C50.4352 94.9598 46.9964 89.4473 40.1193 78.4233C32.9521 66.9338 29.3685 61.1892 30.0915 56.4722C30.6011 53.1483 32.3978 50.1277 35.1264 48.008C38.998 45 45.9986 45 60 45C74.0016 45 81.0019 45 84.8738 48.008C87.6024 50.1277 89.3991 53.1483 89.9086 56.4722C90.6314 61.1892 87.0478 66.9338 79.8806 78.4233Z" fill="url(#paint4_radial_14_14380)" fill-opacity="0.6" shape-rendering="crispEdges"/>
<path fill-rule="evenodd" clip-rule="evenodd" d="M79.8806 78.4233C73.0036 89.4473 69.5649 94.9598 65.0006 96.6211C61.7799 97.793 58.2202 97.793 54.9994 96.6211C50.4352 94.9598 46.9964 89.4473 40.1193 78.4233C32.9521 66.9338 29.3685 61.1892 30.0915 56.4722C30.6011 53.1483 32.3978 50.1277 35.1264 48.008C38.998 45 45.9986 45 60 45C74.0016 45 81.0019 45 84.8738 48.008C87.6024 50.1277 89.3991 53.1483 89.9086 56.4722C90.6314 61.1892 87.0478 66.9338 79.8806 78.4233Z" fill="url(#paint5_linear_14_14380)" fill-opacity="0.9" shape-rendering="crispEdges"/>
<path d="M35.4357 48.4061L35.4357 48.4061C37.2547 46.9929 39.8528 46.2516 43.8119 45.8779C47.7669 45.5047 52.989 45.5042 60 45.5042C67.0111 45.5042 72.2332 45.5047 76.1882 45.8779C80.1472 46.2516 82.7453 46.9929 84.5645 48.4061L84.8738 48.008L84.5645 48.4061C87.1943 50.4491 88.9208 53.356 89.4103 56.5486C89.7476 58.7499 89.0901 61.2486 87.4009 64.6857C85.7134 68.1192 83.0424 72.4022 79.4529 78.1564C76.0086 83.6777 73.4451 87.786 71.1744 90.725C68.904 93.6635 66.9755 95.3658 64.8282 96.1473C61.7188 97.2787 58.2812 97.2787 55.1718 96.1473C53.0246 95.3658 51.096 93.6635 48.8256 90.725C46.5549 87.786 43.9914 83.6777 40.5471 78.1564C36.9576 72.4022 34.2865 68.1192 32.599 64.6857C30.9098 61.2486 30.2524 58.7499 30.5898 56.5486C31.0793 53.356 32.8059 50.4491 35.4357 48.4061Z" stroke="url(#paint6_radial_14_14380)" stroke-width="1.00833"/>
<path d="M35.4357 48.4061L35.4357 48.4061C37.2547 46.9929 39.8528 46.2516 43.8119 45.8779C47.7669 45.5047 52.989 45.5042 60 45.5042C67.0111 45.5042 72.2332 45.5047 76.1882 45.8779C80.1472 46.2516 82.7453 46.9929 84.5645 48.4061L84.8738 48.008L84.5645 48.4061C87.1943 50.4491 88.9208 53.356 89.4103 56.5486C89.7476 58.7499 89.0901 61.2486 87.4009 64.6857C85.7134 68.1192 83.0424 72.4022 79.4529 78.1564C76.0086 83.6777 73.4451 87.786 71.1744 90.725C68.904 93.6635 66.9755 95.3658 64.8282 96.1473C61.7188 97.2787 58.2812 97.2787 55.1718 96.1473C53.0246 95.3658 51.096 93.6635 48.8256 90.725C46.5549 87.786 43.9914 83.6777 40.5471 78.1564C36.9576 72.4022 34.2865 68.1192 32.599 64.6857C30.9098 61.2486 30.2524 58.7499 30.5898 56.5486C31.0793 53.356 32.8059 50.4491 35.4357 48.4061Z" stroke="url(#paint7_linear_14_14380)" stroke-width="1.00833"/>
<path d="M35.4357 48.4061L35.4357 48.4061C37.2547 46.9929 39.8528 46.2516 43.8119 45.8779C47.7669 45.5047 52.989 45.5042 60 45.5042C67.0111 45.5042 72.2332 45.5047 76.1882 45.8779C80.1472 46.2516 82.7453 46.9929 84.5645 48.4061L84.8738 48.008L84.5645 48.4061C87.1943 50.4491 88.9208 53.356 89.4103 56.5486C89.7476 58.7499 89.0901 61.2486 87.4009 64.6857C85.7134 68.1192 83.0424 72.4022 79.4529 78.1564C76.0086 83.6777 73.4451 87.786 71.1744 90.725C68.904 93.6635 66.9755 95.3658 64.8282 96.1473C61.7188 97.2787 58.2812 97.2787 55.1718 96.1473C53.0246 95.3658 51.096 93.6635 48.8256 90.725C46.5549 87.786 43.9914 83.6777 40.5471 78.1564C36.9576 72.4022 34.2865 68.1192 32.599 64.6857C30.9098 61.2486 30.2524 58.7499 30.5898 56.5486C31.0793 53.356 32.8059 50.4491 35.4357 48.4061Z" stroke="url(#paint8_linear_14_14380)" stroke-width="1.00833"/>
<defs>
<filter x="-7.45534" y="-7.45534" width="134.911" height="127.411" filterUnits="userSpaceOnUse" color-interpolation-filters="sRGB">
<feFlood flood-opacity="0" result="BackgroundImageFix"/>
<feGaussianBlur in="BackgroundImage" stdDeviation="3.72767"/>
<feComposite in2="SourceAlpha" operator="in" result="effect1_backgroundBlur_14_14380"/>
<feBlend mode="normal" in="SourceGraphic" in2="effect1_backgroundBlur_14_14380" result="shape"/>
</filter>
<filter x="22.5447" y="37.5447" width="74.9107" height="67.4107" filterUnits="userSpaceOnUse" color-interpolation-filters="sRGB">
<feFlood flood-opacity="0" result="BackgroundImageFix"/>
<feGaussianBlur in="BackgroundImage" stdDeviation="3.72767"/>
<feComposite in2="SourceAlpha" operator="in" result="effect1_backgroundBlur_14_14380"/>
<feColorMatrix in="SourceAlpha" type="matrix" values="0 0 0 0 0 0 0 0 0 0 0 0 0 0 0 0 0 0 127 0" result="hardAlpha"/>
<feOffset dx="-3.2" dy="3.2"/>
<feGaussianBlur stdDeviation="1.6"/>
<feComposite in2="hardAlpha" operator="out"/>
<feColorMatrix type="matrix" values="0 0 0 0 0 0 0 0 0 0 0 0 0 0 0 0 0 0 0.8 0"/>
<feBlend mode="normal" in2="effect1_backgroundBlur_14_14380" result="effect2_dropShadow_14_14380"/>
<feBlend mode="normal" in="SourceGraphic" in2="effect2_dropShadow_14_14380" result="shape"/>
<feColorMatrix in="SourceAlpha" type="matrix" values="0 0 0 0 0 0 0 0 0 0 0 0 0 0 0 0 0 0 127 0" result="hardAlpha"/>
<feOffset dy="0.403333"/>
<feGaussianBlur stdDeviation="0.403333"/>
<feComposite in2="hardAlpha" operator="arithmetic" k2="-1" k3="1"/>
<feColorMatrix type="matrix" values="0 0 0 0 1 0 0 0 0 1 0 0 0 0 1 0 0 0 0.634042 0"/>
<feBlend mode="normal" in2="shape" result="effect3_innerShadow_14_14380"/>
</filter>
<filter x="22.5447" y="37.5447" width="74.9107" height="67.4107" filterUnits="userSpaceOnUse" color-interpolation-filters="sRGB">
<feFlood flood-opacity="0" result="BackgroundImageFix"/>
<feGaussianBlur in="BackgroundImage" stdDeviation="3.72767"/>
<feComposite in2="SourceAlpha" operator="in" result="effect1_backgroundBlur_14_14380"/>
<feBlend mode="normal" in="SourceGraphic" in2="effect1_backgroundBlur_14_14380" result="shape"/>
</filter>
<radialGradient id="paint0_radial_14_14380" cx="0" cy="0" r="1" gradientUnits="userSpaceOnUse" gradientTransform="translate(94.0498) rotate(113.066) scale(144.57 117.776)">
<stop stop-color="#FF65DA" stop-opacity="0.4"/>
<stop offset="1" stop-color="#FF41E1" stop-opacity="0.01"/>
</radialGradient>
<radialGradient id="paint1_radial_14_14380" cx="0" cy="0" r="1" gradientUnits="userSpaceOnUse" gradientTransform="translate(60 56.25) rotate(90) scale(56.25 60)">
<stop stop-color="#8D4525"/>
<stop offset="1" stop-color="#8C4424" stop-opacity="0.01"/>
</radialGradient>
<linearGradient id="paint2_linear_14_14380" x1="23.6575" y1="56.25" x2="23.6575" y2="124.392" gradientUnits="userSpaceOnUse">
<stop stop-color="#FA5B30"/>
<stop offset="1" stop-color="#FA5B30" stop-opacity="0.463266"/>
</linearGradient>
<linearGradient id="paint3_linear_14_14380" x1="0" y1="0" x2="0" y2="112.5" gradientUnits="userSpaceOnUse">
<stop stop-color="white"/>
<stop offset="1" stop-color="white" stop-opacity="0.01"/>
</linearGradient>
<radialGradient id="paint4_radial_14_14380" cx="0" cy="0" r="1" gradientUnits="userSpaceOnUse" gradientTransform="translate(77.0249 45) rotate(135) scale(49.7184 39.5177)">
<stop stop-color="#414F6E" stop-opacity="0.01"/>
<stop offset="1" stop-color="#414F6E" stop-opacity="0.6"/>
</radialGradient>
<linearGradient id="paint5_linear_14_14380" x1="3.28125" y1="98.9063" x2="102.788" y2="22.3855" gradientUnits="userSpaceOnUse">
<stop stop-color="white" stop-opacity="0.01"/>
<stop offset="0.148634" stop-color="white" stop-opacity="0.01"/>
<stop offset="0.527177" stop-color="white" stop-opacity="0.01"/>
<stop offset="0.635818" stop-color="#00ACEF" stop-opacity="0.2"/>
<stop offset="0.65967" stop-color="#72FF34" stop-opacity="0.2"/>
<stop offset="0.688988" stop-color="#FFD700" stop-opacity="0.2"/>
<stop offset="0.716792" stop-color="#F38700" stop-opacity="0.2"/>
<stop offset="0.747973" stop-color="#FB0000" stop-opacity="0.197346"/>
<stop offset="0.843535" stop-color="#E9E9E9" stop-opacity="0.01"/>
<stop offset="1" stop-color="white" stop-opacity="0.01"/>
</linearGradient>
<radialGradient id="paint6_radial_14_14380" cx="0" cy="0" r="1" gradientUnits="userSpaceOnUse" gradientTransform="translate(60 71.25) rotate(90) scale(26.25 30)">
<stop stop-color="#8C4424" stop-opacity="0.01"/>
<stop offset="1" stop-color="#8D4525"/>
</radialGradient>
<linearGradient id="paint7_linear_14_14380" x1="41.8288" y1="71.25" x2="41.8288" y2="103.05" gradientUnits="userSpaceOnUse">
<stop stop-color="#FA5B30" stop-opacity="0.463266"/>
<stop offset="1" stop-color="#FA5B30"/>
</linearGradient>
<linearGradient id="paint8_linear_14_14380" x1="30" y1="45" x2="30" y2="97.5" gradientUnits="userSpaceOnUse">
<stop stop-color="white" stop-opacity="0.01"/>
<stop offset="1" stop-color="white"/>
</linearGradient>
<clipPath>
<rect width="120" height="112.5" fill="white"/>
</clipPath>
</defs>
</svg>
